<?xml version="1.0" standalone="no"?><!DOCTYPE svg PUBLIC "-//W3C//DTD SVG 1.1//EN" "http://www.w3.org/Graphics/SVG/1.1/DTD/svg11.dtd"><svg t="1627697837729" class="icon" viewBox="0 0 1024 1024" version="1.1" xmlns="http://www.w3.org/2000/svg" p-id="5354" xmlns:xlink="http://www.w3.org/1999/xlink" width="200" height="200"><defs><style type="text/css"></style></defs><path d="M851.428571 814.857143l0-370.285714-77.142857 0q11.428571 36 11.428571 74.857143 0 72-36.571429 132.857143t-99.428571 96.285714-137.142857 35.428571q-112.571429 0-192.571429-77.428571t-80-187.142857q0-38.857143 11.428571-74.857143l-80.571429 0 0 370.285714q0 14.857143 10 24.857143t24.857143 10l610.857143 0q14.285714 0 24.571429-10t10.285714-24.857143zm-162.285714-304.571429q0-70.857143-51.714286-120.857143t-124.857143-50q-72.571429 0-124.285714 50t-51.714286 120.857143 51.714286 120.857143 124.285714 50q73.142857 0 124.857143-50t51.714286-120.857143zm162.285714-205.714286l0-94.285714q0-16-11.428571-27.714286t-28-11.714286l-99.428571 0q-16.571429 0-28 11.714286t-11.428571 27.714286l0 94.285714q0 16.571429 11.428571 28t28 11.428571l99.428571 0q16.571429 0 28-11.428571t11.428571-28zm99.428571-118.857143l0 652.571429q0 46.285714-33.142857 79.428571t-79.428571 33.142857l-652.571429 0q-46.285714 0-79.428571-33.142857t-33.142857-79.428571l0-652.571429q0-46.285714 33.142857-79.428571t79.428571-33.142857l652.571429 0q46.285714 0 79.428571 33.142857t33.142857 79.428571z" p-id="5355"></path></svg>