<?xml version="1.0" standalone="no"?><!DOCTYPE svg PUBLIC "-//W3C//DTD SVG 1.1//EN" "http://www.w3.org/Graphics/SVG/1.1/DTD/svg11.dtd"><svg t="1627782866121" class="icon" viewBox="0 0 1024 1024" version="1.1" xmlns="http://www.w3.org/2000/svg" p-id="1973" xmlns:xlink="http://www.w3.org/1999/xlink" width="200" height="200"><defs><style type="text/css"></style></defs><path d="M475.428571 548.571429v219.428571q0 45.714286-32 77.714286t-77.714285 32H146.285714q-45.714286 0-77.714285-32T36.571429 768V365.714286q0-59.428571 23.142857-113.428572T122.285714 158.857143t93.428572-62.571429T329.142857 73.142857h36.571429q14.857143 0 25.714285 10.857143t10.857143 25.714286v73.142857q0 14.857143-10.857143 25.714286t-25.714285 10.857142h-36.571429q-60.571429 0-103.428571 42.857143t-42.857143 103.428572v18.285714q0 22.857143 16 38.857143t38.857143 16h128q45.714286 0 77.714285 32t32 77.714286z m512 0v219.428571q0 45.714286-32 77.714286t-77.714285 32h-219.428572q-45.714286 0-77.714285-32t-32-77.714286V365.714286q0-59.428571 23.142857-113.428572T634.285714 158.857143t93.428572-62.571429T841.142857 73.142857h36.571429q14.857143 0 25.714285 10.857143t10.857143 25.714286v73.142857q0 14.857143-10.857143 25.714286t-25.714285 10.857142h-36.571429q-60.571429 0-103.428571 42.857143t-42.857143 103.428572v18.285714q0 22.857143 16 38.857143t38.857143 16h128q45.714286 0 77.714285 32t32 77.714286z" p-id="1974"></path></svg>